<svg width="200" height="200" viewBox="0 0 200 200" fill="none" xmlns="http://www.w3.org/2000/svg">
<rect width="200" height="200" fill="#203946"/>
<path d="M194 130.527L161.329 162.017C157.541 165.674 152.566 167.5 147.58 167.5C130.367 167.5 121.558 147.327 133.83 135.502L165.91 104.57C168.737 101.857 172.432 100.5 176.138 100.5C184.791 100.5 190.606 107.384 190.606 114.564C190.606 117.97 189.291 121.443 186.355 124.279L157.872 151.738C154.2 155.278 148.228 155.278 144.557 151.738C140.89 148.204 140.89 142.448 144.557 138.908L167.555 116.742L172.351 121.365L149.352 143.531C148.321 144.519 148.321 146.133 149.352 147.121C150.383 148.109 152.045 148.109 153.076 147.121L181.565 119.662C184.56 116.775 184.56 112.085 181.565 109.199C178.571 106.312 173.712 106.312 170.712 109.199L138.632 140.13C133.686 144.893 133.686 152.643 138.632 157.4C143.566 162.162 151.605 162.162 156.545 157.4L189.21 125.91L194 130.527V130.527ZM95.5417 97.7083C95.5417 93.0853 91.6497 89.3333 86.8542 89.3333C82.0587 89.3333 78.1667 93.0853 78.1667 97.7083C78.1667 102.337 82.0587 106.083 86.8542 106.083C91.6497 106.083 95.5417 102.337 95.5417 97.7083ZM139.385 114.531L130.292 100.5L115.697 122.833L101.333 111.89L78.1667 145.167H116.936C117.77 138.807 120.585 132.649 125.641 127.78L139.385 114.531V114.531ZM117.643 156.333H66.5833V78.1667H170.833V90.0368C172.565 89.6907 174.331 89.5008 176.138 89.5008C178.287 89.5008 180.378 89.8358 182.417 90.3216V67H55V167.5H123.446C120.654 164.122 118.708 160.337 117.643 156.333V156.333Z" fill="white"/>
<path d="M15.712 24.344V45.42C15.712 45.8307 15.756 46.256 15.844 46.696C15.9613 47.136 16.152 47.5613 16.416 47.972C16.7093 48.3533 17.0907 48.676 17.56 48.94C18.0293 49.1747 18.6453 49.292 19.408 49.292H23.808C24.5413 49.292 25.1573 49.1747 25.656 48.94C26.1547 48.676 26.5507 48.3533 26.844 47.972C27.1667 47.5613 27.3867 47.1213 27.504 46.652C27.6507 46.1533 27.724 45.6547 27.724 45.156V24.344H34.808V46.696C34.808 48.368 34.5293 49.8053 33.972 51.008C33.444 52.2107 32.7253 53.1933 31.816 53.956C30.9067 54.7187 29.8507 55.276 28.648 55.628C27.4453 56.0093 26.1693 56.2 24.82 56.2H18.968C17.384 56.2 15.932 55.936 14.612 55.408C13.292 54.9093 12.1627 54.2053 11.224 53.296C10.3147 52.3573 9.62533 51.2573 9.156 49.996C8.68667 48.7347 8.496 47.3413 8.584 45.816V24.344H15.712ZM62.0877 56.2H54.5637C54.769 55.8187 54.9303 55.4373 55.0477 55.056C55.1943 54.6747 55.2823 54.264 55.3117 53.824C55.3703 53.3547 55.3997 52.8267 55.3997 52.24C55.429 51.6533 55.4437 50.9493 55.4437 50.128C55.4437 49.0427 55.3703 48.104 55.2237 47.312C55.1063 46.4907 54.8423 45.816 54.4317 45.288C54.0503 44.7307 53.493 44.32 52.7597 44.056C52.0263 43.792 51.0437 43.66 49.8117 43.66H44.8397V56.2H37.2277V24.168H52.4957C54.6077 24.168 56.309 24.52 57.5997 25.224C58.8903 25.8987 59.8877 26.72 60.5917 27.688C61.2957 28.6267 61.7503 29.6093 61.9557 30.636C62.1903 31.6627 62.3077 32.528 62.3077 33.232C62.3077 34.992 61.9117 36.5613 61.1197 37.94C60.357 39.3187 59.1837 40.272 57.5997 40.8C58.245 41.0933 58.8463 41.4013 59.4037 41.724C59.961 42.0467 60.4303 42.5013 60.8117 43.088C61.2223 43.6453 61.5303 44.3933 61.7357 45.332C61.9703 46.2413 62.0877 47.444 62.0877 48.94V56.2ZM50.7357 38.248C52.4663 38.248 53.757 37.9253 54.6077 37.28C55.4583 36.6053 55.8837 35.476 55.8837 33.892C55.8837 33.4813 55.825 33.0413 55.7077 32.572C55.5903 32.0733 55.3557 31.6187 55.0037 31.208C54.681 30.768 54.2117 30.416 53.5957 30.152C52.9797 29.8587 52.1877 29.712 51.2197 29.712H44.8397V38.248H50.7357ZM72.2331 51.536H86.8411V56.244H65.1051V24.168H72.2331V51.536ZM101.914 35.256H108.822V56.2H102.53V54.352C101.797 55.1147 101.034 55.6133 100.242 55.848C99.4502 56.0827 98.7315 56.2 98.0862 56.2H96.2822C95.3142 56.2 94.3755 56.068 93.4662 55.804C92.5862 55.5693 91.8089 55.144 91.1342 54.528C90.4889 53.9413 89.9609 53.1493 89.5502 52.152C89.1689 51.1253 88.9782 49.8347 88.9782 48.28V35.256H94.3462V46.96C94.3462 48.456 94.5369 49.5413 94.9182 50.216C95.3289 50.8907 96.0769 51.228 97.1622 51.228H98.9222C99.8315 51.228 100.55 50.9053 101.078 50.26C101.636 49.5853 101.914 48.6027 101.914 47.312V35.256ZM128.064 35.168V40.756C127.448 40.756 126.73 40.7853 125.908 40.844C125.087 40.9027 124.207 41.0347 123.268 41.24C122.33 41.416 121.376 41.6947 120.408 42.076C119.44 42.4573 118.502 42.9853 117.592 43.66V56.2H111.564V35.256H117.592V38.204C118.032 37.8813 118.575 37.544 119.22 37.192C119.866 36.84 120.614 36.532 121.464 36.268C122.344 35.9747 123.327 35.7253 124.412 35.52C125.527 35.3147 126.744 35.1973 128.064 35.168ZM148.32 35.124V41.064L140.444 45.684L148.32 50.348V56.332L136.44 49.512V56.2H130.852V24.168H136.44V41.724L148.32 35.124ZM160.755 35.256C161.782 35.256 162.764 35.4173 163.703 35.74C164.642 36.0627 165.463 36.5173 166.167 37.104C166.9 37.6907 167.472 38.424 167.883 39.304C168.323 40.1547 168.543 41.108 168.543 42.164V47.136H155.475V49.16C155.475 49.424 155.519 49.7467 155.607 50.128C155.724 50.5093 155.915 50.876 156.179 51.228C156.443 51.5507 156.81 51.8293 157.279 52.064C157.748 52.2987 158.35 52.416 159.083 52.416H160.799C162.911 52.416 163.967 51.448 163.967 49.512H168.939V50.832C168.939 51.888 168.734 52.768 168.323 53.472C167.912 54.1467 167.37 54.6893 166.695 55.1C166.02 55.5107 165.243 55.7893 164.363 55.936C163.483 56.112 162.574 56.2 161.635 56.2H157.411C156.678 56.2 155.915 56.0973 155.123 55.892C154.36 55.6867 153.627 55.3347 152.923 54.836C152.248 54.3667 151.662 53.736 151.163 52.944C150.664 52.1227 150.327 51.1253 150.151 49.952V42.164C150.151 41.196 150.371 40.3013 150.811 39.48C151.251 38.6293 151.838 37.896 152.571 37.28C153.304 36.6347 154.155 36.136 155.123 35.784C156.12 35.432 157.162 35.256 158.247 35.256H160.755ZM155.475 43.836H163.527V42.516C163.527 42.1347 163.424 41.768 163.219 41.416C163.043 41.0347 162.794 40.712 162.471 40.448C162.148 40.1547 161.782 39.9347 161.371 39.788C160.96 39.612 160.55 39.524 160.139 39.524H158.731C158.32 39.524 157.91 39.612 157.499 39.788C157.118 39.9347 156.766 40.1547 156.443 40.448C156.15 40.712 155.915 41.0347 155.739 41.416C155.563 41.768 155.475 42.1347 155.475 42.516V43.836ZM188.346 35.168V40.756C187.73 40.756 187.011 40.7853 186.19 40.844C185.369 40.9027 184.489 41.0347 183.55 41.24C182.611 41.416 181.658 41.6947 180.69 42.076C179.722 42.4573 178.783 42.9853 177.874 43.66V56.2H171.846V35.256H177.874V38.204C178.314 37.8813 178.857 37.544 179.502 37.192C180.147 36.84 180.895 36.532 181.746 36.268C182.626 35.9747 183.609 35.7253 184.694 35.52C185.809 35.3147 187.026 35.1973 188.346 35.168Z" fill="white"/>
</svg>
